# xmcd
#
# Track frame offsets:
#        150
#        21655
#        34782
#        53460
#        77320
#        96557
#        122522
#        135430
#        156737
#        174887
#        193485
#        217225
#        235582
#        258552
#        283687
#        314267
#
# Disc length: 4601 seconds
#
# Revision: 0
# Processed by: cddbd v1.5.1PL2 Copyright (c) Steve Scherf et al.
# Submitted via: ExactAudioCopy v0.95b2
#
DISCID=e511f710
DTITLE=Various Artist - avex rave '93 LIVE IN TOKYO DOME
DYEAR=1993
DGENRE=Rave
TTITLE0=GONNA BE ALRIGHT - 2nd FUNCTION featuring KAM
TTITLE1=EXPLOSION - DIGITAL VOLCANO
TTITLE2=CAN'T UNDO THIS!! - MAXIMIZOR
TTITLE3=ARE U WAKE UP? - STARR GAZER
TTITLE4=TAKE ME - DREAM FREQUENCY featuring DEBBIE SHARP
TTITLE5=BOMBAS - CHIMO BAYO
TTITLE6=COME ON BOY - DJ HERBIE
TTITLE7=WHY DON'T YOU - RAGE
TTITLE8=BALLOONY - L.A. STYLE
TTITLE9=JAMES BROWN IS DEAD - L.A. STYLE
TTITLE10=I GOTTA MOVE - JOHN ROBINSON
TTITLE11=RAVE ALLERT - PRAGA KHAN featuring JADE 4 U
TTITLE12=TO BE FREE /JOHN ROBINSON featuring JADE 4 U
TTITLE13=INJECTED WITH A POISON - PRAGA KHAN featuring JADE 4 U
TTITLE14=GOING 2 DANCE - trf
TTITLE15=EZ DO DANCE - trf
EXTD=
EXTT0=
EXTT1=
EXTT2=
EXTT3=
EXTT4=
EXTT5=
EXTT6=
EXTT7=
EXTT8=
EXTT9=
EXTT10=
EXTT11=
EXTT12=
EXTT13=
EXTT14=
EXTT15=
PLAYORDER=
